<svg width="391" height="88.4" viewBox="0 0 391 88.4" xmlns="http://www.w3.org/2000/svg"><g id="svgGroup" stroke-linecap="round" fill-rule="evenodd" font-size="9pt" stroke="#000" stroke-width="0.25mm" fill="black" style="stroke:#000;stroke-width:0.25mm;fill:black"><path d="M 110.2 14.8 L 112.2 22.2 A 538.542 538.542 0 0 0 116.879 22.119 C 121.875 22.011 127.725 21.81 133.575 21.427 A 234.218 234.218 0 0 0 141.3 20.8 L 141.3 39 L 111.2 39 C 108.2 39 104.7 38.8 102.4 38.6 L 102.4 46.9 C 104.8 46.7 108.2 46.5 111.4 46.5 L 141.1 46.5 A 48.479 48.479 0 0 1 138.144 60.744 C 134.311 70.706 126.909 77.767 115.8 82.9 L 123.7 88.4 A 58.215 58.215 0 0 0 136.361 78.729 C 144.645 70.194 148.522 59.721 149.3 46.5 L 177.2 46.5 A 61.9 61.9 0 0 1 179.457 46.545 C 180.746 46.593 182.063 46.673 183.265 46.764 A 109.452 109.452 0 0 1 184.9 46.9 L 184.9 38.6 C 182.927 38.788 179.629 38.976 177.413 38.998 A 41.691 41.691 0 0 1 177 39 L 149.4 39 L 149.4 19.8 C 156.6 18.7 164.3 17.2 169.3 15.9 A 76.937 76.937 0 0 1 170.456 15.581 C 171.214 15.378 172.075 15.153 173.001 14.909 A 247.273 247.273 0 0 0 174.9 14.4 L 169.6 7.5 A 23.793 23.793 0 0 1 168.29 8.011 C 162.821 9.979 152.169 12.104 143.8 13.3 C 133.139 14.682 118.189 15.09 110.496 14.811 A 90.308 90.308 0 0 1 110.2 14.8 Z M 207.7 78 L 213 86.2 A 110.777 110.777 0 0 0 228.829 82.053 C 234.307 80.171 239.241 77.979 243.719 75.643 A 121.375 121.375 0 0 0 252.3 70.7 C 266.901 61.514 278.323 48.495 285.21 36.343 A 81.801 81.801 0 0 0 285.9 35.1 L 281.1 26.6 A 69.529 69.529 0 0 1 277.367 33.437 C 270.807 44.06 260.33 55.445 247.7 63.4 A 110.361 110.361 0 0 1 246.129 64.358 C 236.781 69.949 224.254 75.541 207.7 78 Z M 319.3 55.5 L 311.2 54.7 C 310.673 56.809 310.118 59.113 309.711 61.583 A 43.051 43.051 0 0 0 309.1 68.6 C 309.1 81.025 320.574 87.712 340.357 87.896 A 90.731 90.731 0 0 0 341.2 87.9 C 354.051 87.9 365.609 86.689 372.973 84.992 A 50.154 50.154 0 0 0 375.3 84.4 L 375.2 75.8 C 367.7 78.2 354.8 79.7 341 79.7 C 325 79.7 317.3 74.5 317.3 66.8 A 33.363 33.363 0 0 1 318.522 58.078 A 45.668 45.668 0 0 1 319.3 55.5 Z M 75.9 84.8 L 84.8 81.9 A 209.013 209.013 0 0 0 83.613 77.951 C 80.826 68.979 76.447 56.547 72.919 47.987 A 183.33 183.33 0 0 0 72.8 47.7 C 68.6 37.1 62.2 23.3 58.2 16.1 L 50.1 18.8 A 87.367 87.367 0 0 1 52.237 22.638 C 55.842 29.472 60.068 39.058 63.338 47.204 A 306.204 306.204 0 0 1 64.6 50.4 A 329.865 329.865 0 0 1 66.509 55.383 C 69.268 62.762 72.037 70.931 74.14 78.236 A 171.626 171.626 0 0 1 75.9 84.8 Z M 0 81.4 L 8.5 85 C 14.1 77 19.5 66.7 23.2 57.5 A 102.122 102.122 0 0 0 25.34 51.773 C 28.386 42.886 30.858 32.603 32.095 27.114 A 309.525 309.525 0 0 0 32.3 26.2 C 32.633 24.45 33.244 22.144 33.786 20.151 A 1310.538 1310.538 0 0 1 34.1 19 L 25.2 17.1 C 24.14 26.558 21.152 38.409 17.754 48.047 A 117.456 117.456 0 0 1 15.4 54.2 C 13.691 58.302 11.481 62.906 8.933 67.509 A 117.089 117.089 0 0 1 0 81.4 Z M 315.3 15.2 L 315.3 23.3 C 322.213 23.913 329.584 24.295 338.086 24.381 A 366.592 366.592 0 0 0 341.8 24.4 C 349.978 24.4 359.499 23.847 366.289 23.373 A 653.482 653.482 0 0 0 368.7 23.2 L 368.7 15 C 361.5 15.8 351.3 16.4 341.7 16.4 A 327.779 327.779 0 0 1 329.135 16.17 C 325.627 16.035 322.318 15.84 319.276 15.585 A 148.149 148.149 0 0 1 315.3 15.2 Z M 216.3 11 L 210.6 17.1 C 218 22.1 230.5 32.8 235.5 38 L 241.8 31.7 A 80.82 80.82 0 0 0 239.617 29.608 C 233.837 24.25 224.239 16.492 217.848 12.052 A 83.666 83.666 0 0 0 216.3 11 Z M 67.3 14.6 C 67.3 20.8 72.3 25.8 78.5 25.8 C 84.6 25.8 89.7 20.8 89.7 14.6 C 89.7 8.4 84.6 3.3 78.5 3.3 C 72.3 3.3 67.3 8.4 67.3 14.6 Z M 371.5 4 L 366.1 6.3 C 368.9 10.1 372.3 16.2 374.3 20.3 L 379.7 17.8 A 131.1 131.1 0 0 0 378.497 15.567 C 376.529 11.99 373.928 7.586 371.905 4.592 A 56.198 56.198 0 0 0 371.5 4 Z M 382.5 0 L 377.2 2.3 C 379.639 5.495 382.36 10.034 384.413 13.955 A 85.968 85.968 0 0 1 385.5 16.1 L 391 13.7 C 389.095 10.175 385.556 4.292 382.891 0.543 A 54.436 54.436 0 0 0 382.5 0 Z M 78.327 7.902 A 6.618 6.618 0 0 0 71.9 14.6 C 71.9 18.2 74.8 21.2 78.5 21.2 C 82.1 21.2 85.1 18.2 85.1 14.6 C 85.1 10.9 82.1 7.9 78.5 7.9 A 6.818 6.818 0 0 0 78.327 7.902 Z" vector-effect="non-scaling-stroke"/></g></svg>