<svg width="189.9" height="92.2" viewBox="0 0 189.9 92.2" xmlns="http://www.w3.org/2000/svg"><g id="svgGroup" stroke-linecap="round" fill-rule="evenodd" font-size="9pt" stroke="#000" stroke-width="0.25mm" fill="black" style="stroke:#000;stroke-width:0.25mm;fill:black"><path d="M 188.6 49 L 188.6 42.9 L 168.2 42.9 L 168.2 15 L 184.3 15 L 184.3 8.9 L 168.2 8.9 L 168.2 0 L 160.7 0 L 160.7 8.9 L 126.3 8.9 L 126.3 0 L 118.9 0 L 118.9 8.9 L 103 8.9 L 103 15 L 118.9 15 L 118.9 42.9 L 98.4 42.9 L 98.4 49 L 120.3 49 A 59.306 59.306 0 0 1 99.523 65.023 A 45.979 45.979 0 0 1 97.2 66 A 17.476 17.476 0 0 1 97.93 66.68 C 99.392 68.115 101.046 70.149 101.9 71.6 A 50.807 50.807 0 0 0 103.501 70.84 C 107.678 68.769 111.854 66.004 115.698 62.768 A 64.894 64.894 0 0 0 120.2 58.6 L 120.2 60.7 L 129 60.7 C 127.6 63 125.9 65.1 124 67.2 L 123.8 67.2 L 123.8 67.5 C 118.7 73.1 112.3 77.8 105.7 81.2 A 29.182 29.182 0 0 1 106.333 81.809 C 107.607 83.066 109.328 84.932 110.358 86.177 A 21.797 21.797 0 0 1 110.7 86.6 A 78.187 78.187 0 0 0 122.637 78.127 A 72.433 72.433 0 0 0 123.8 77.1 L 123.8 91.2 L 130.7 91.2 L 130.7 88.1 L 163 88.1 L 163 91.1 L 170.2 91.1 L 170.2 67.2 L 132.8 67.2 C 134.4 65.1 135.8 63 137.1 60.7 L 167.4 60.7 L 167.4 58.6 A 62.552 62.552 0 0 0 183.793 69.449 A 46.556 46.556 0 0 0 185.1 70 A 16.289 16.289 0 0 1 185.683 69.072 C 186.844 67.348 188.55 65.397 189.9 64.3 C 181.1 61.4 172.5 55.6 166.7 49 L 188.6 49 Z M 87.2 51.5 L 65.2 51.5 L 65.2 27.8 L 84.9 27.8 L 84.9 20.5 L 65.2 20.5 L 65.2 0.3 L 57.6 0.3 L 57.6 20.5 L 30 20.5 L 30 0.4 L 22.3 0.4 L 22.3 20.5 L 3.1 20.5 L 3.1 27.8 L 22.3 27.8 L 22.3 38.9 C 22.3 43.2 22.2 47.4 21.8 51.5 L 0 51.5 L 0 58.9 L 20.6 58.9 A 40.471 40.471 0 0 1 10.892 78.608 C 8.578 81.157 5.798 83.571 2.463 85.838 A 57.88 57.88 0 0 1 1 86.8 A 15.136 15.136 0 0 1 1.89 87.383 C 3.656 88.621 5.782 90.539 7.038 91.908 A 16.732 16.732 0 0 1 7.3 92.2 A 51.029 51.029 0 0 0 17.567 83.292 A 48.521 48.521 0 0 0 28.6 58.9 L 57.6 58.9 L 57.6 91.2 L 65.2 91.2 L 65.2 58.9 L 87.2 58.9 L 87.2 51.5 Z M 30 39 L 30 27.8 L 57.6 27.8 L 57.6 51.5 L 29.5 51.5 C 29.9 47.4 30 43.2 30 39 Z M 163.8 55 L 123.6 55 C 125.2 53.1 126.7 51.1 128.1 49 L 159 49 C 160.4 51.1 162 53.1 163.8 55 Z M 163 82.5 L 130.7 82.5 L 130.7 72.8 L 163 72.8 L 163 82.5 Z M 126.3 37 L 160.7 37 L 160.7 42.9 L 126.3 42.9 L 126.3 37 Z M 160.7 15 L 160.7 20.7 L 126.3 20.7 L 126.3 15 L 160.7 15 Z M 126.3 26 L 160.7 26 L 160.7 31.7 L 126.3 31.7 L 126.3 26 Z" vector-effect="non-scaling-stroke"/></g></svg>